<svg width="33" height="32" viewBox="0 0 33 32" fill="none" xmlns="http://www.w3.org/2000/svg">
<g id="CaretDown">
<path id="Vector" d="M27.2076 12.7074L17.2076 22.7074C17.1147 22.8004 17.0044 22.8742 16.883 22.9245C16.7616 22.9748 16.6315 23.0007 16.5001 23.0007C16.3687 23.0007 16.2385 22.9748 16.1171 22.9245C15.9957 22.8742 15.8854 22.8004 15.7926 22.7074L5.79257 12.7074C5.60493 12.5198 5.49951 12.2653 5.49951 11.9999C5.49951 11.7346 5.60493 11.4801 5.79257 11.2924C5.98021 11.1048 6.2347 10.9994 6.50007 10.9994C6.76543 10.9994 7.01993 11.1048 7.20757 11.2924L16.5001 20.5862L25.7926 11.2924C25.8855 11.1995 25.9958 11.1258 26.1172 11.0756C26.2386 11.0253 26.3687 10.9994 26.5001 10.9994C26.6315 10.9994 26.7616 11.0253 26.883 11.0756C27.0044 11.1258 27.1147 11.1995 27.2076 11.2924C27.3005 11.3854 27.3742 11.4957 27.4245 11.617C27.4747 11.7384 27.5006 11.8686 27.5006 11.9999C27.5006 12.1313 27.4747 12.2614 27.4245 12.3828C27.3742 12.5042 27.3005 12.6145 27.2076 12.7074Z" fill="#130E1D"/>
</g>
</svg>
