<svg width="24" height="25" viewBox="0 0 24 25" fill="none" xmlns="http://www.w3.org/2000/svg">
<g id="ArrowUpRight">
<path id="Vector" d="M18.7501 6.5V16.25C18.7501 16.4489 18.671 16.6397 18.5304 16.7803C18.3897 16.921 18.199 17 18.0001 17C17.8011 17 17.6104 16.921 17.4697 16.7803C17.3291 16.6397 17.2501 16.4489 17.2501 16.25V8.31031L6.53068 19.0306C6.38995 19.1714 6.19907 19.2504 6.00005 19.2504C5.80103 19.2504 5.61016 19.1714 5.46943 19.0306C5.3287 18.8899 5.24963 18.699 5.24963 18.5C5.24963 18.301 5.3287 18.1101 5.46943 17.9694L16.1897 7.25H8.25005C8.05114 7.25 7.86037 7.17098 7.71972 7.03033C7.57907 6.88968 7.50005 6.69891 7.50005 6.5C7.50005 6.30109 7.57907 6.11032 7.71972 5.96967C7.86037 5.82902 8.05114 5.75 8.25005 5.75H18.0001C18.199 5.75 18.3897 5.82902 18.5304 5.96967C18.671 6.11032 18.7501 6.30109 18.7501 6.5Z" fill="#130E1D"/>
</g>
</svg>
