<svg  viewBox="0 0 41 40" fill="none" xmlns="http://www.w3.org/2000/svg">
<g id="medical 1" clip-path="url(#clip0_4216_1050)">
<path id="Vector" d="M26.51 13.124C25.454 13.345 24.4311 13.5648 23.4075 13.7817C23.2943 13.8057 23.1776 13.8246 23.0623 13.8252C22.6857 13.827 22.435 13.636 22.3818 13.3186C22.3257 12.984 22.5015 12.6641 22.8575 12.5744C23.6462 12.3758 24.4435 12.2111 25.2369 12.0303C25.3733 11.9993 25.5073 11.9572 25.6959 11.9056C25.5479 11.2065 25.4108 10.526 25.2489 9.85139C25.2345 9.7915 25.0484 9.72013 24.9596 9.73865C23.5304 10.0368 22.1039 10.3476 20.6772 10.6577C18.0885 11.2204 15.5 11.7833 12.9119 12.3487C12.1809 12.5084 11.4517 12.6767 10.6716 12.8523C10.8157 13.534 10.9471 14.2005 11.108 14.8599C11.1281 14.9419 11.3131 15.0491 11.4068 15.0363C11.7769 14.9857 12.1417 14.895 12.5072 14.8135C12.9216 14.7209 13.2595 14.9226 13.3588 15.3283C13.4409 15.6638 13.2123 16.0067 12.8296 16.0938C11.5821 16.378 10.3346 16.6628 9.08394 16.9325C8.39445 17.0811 8.11881 16.882 7.99889 16.1963C7.87875 15.5092 7.43995 15.1146 6.60041 15.0101C5.76697 14.9062 4.92885 14.8376 4.09166 14.7669C2.36432 14.6212 1.26443 13.6232 1.19319 11.7501C1.14455 10.4713 1.77297 9.65284 2.80394 9.04447C3.59453 8.57795 4.39087 8.12046 5.16983 7.63515C5.84355 7.2154 6.13272 6.63548 5.87687 5.82523C5.74159 5.3968 5.94659 5.09663 6.38561 4.99965C8.88315 4.44792 11.3823 3.90358 13.8805 3.35472C16.1528 2.85547 18.4246 2.35387 20.6966 1.85292C22.4004 1.47725 24.1032 1.09706 25.8082 0.726834C26.5134 0.573685 26.7802 0.765963 26.909 1.48552C27.0269 2.14405 27.4627 2.53638 28.2918 2.64456C29.1246 2.75325 29.9629 2.82603 30.8008 2.88817C32.5629 3.01885 33.6398 4.06567 33.7113 5.88428C33.757 7.04533 33.2725 7.88324 32.3115 8.46786C31.604 8.89825 30.8626 9.27351 30.1611 9.71297C29.8272 9.92218 29.5542 10.2273 29.2482 10.4826C28.7917 10.8637 28.9376 11.3401 29.0302 11.8084C29.1252 12.2888 28.9719 12.5467 28.5038 12.6602C27.8512 12.8183 27.1967 12.9684 26.51 13.124ZM18.3875 10.119C20.5909 9.63236 22.7943 9.14572 25.0222 8.65368C24.8271 7.70582 24.6429 6.81057 24.453 5.88725C24.151 5.95008 23.8761 6.00414 23.6026 6.06469C21.5723 6.51422 19.5435 6.97012 17.512 7.41413C15.0901 7.94347 12.6668 8.46644 10.2419 8.98188C9.96889 9.03992 9.90925 9.18212 9.96023 9.41918C10.1067 10.1006 10.278 10.7777 10.393 11.4643C10.4487 11.7962 10.5965 11.8296 10.8691 11.7681C12.1913 11.4695 13.514 11.173 14.8383 10.8842C15.9995 10.631 17.1631 10.3889 18.3875 10.119ZM23.2802 5.08239C23.5928 5.01368 23.9055 4.94497 24.2411 4.87124C24.1003 4.17694 23.9682 3.50719 23.8269 2.83936C23.7822 2.6278 23.6686 2.56402 23.4308 2.61728C21.4142 3.06898 19.3941 3.50475 17.3747 3.94355C15.368 4.37956 13.3604 4.81102 11.3543 5.24978C10.6517 5.40344 9.95264 5.57287 9.21327 5.74405C9.37313 6.52417 9.52519 7.26626 9.67891 8.01646C9.76686 8.02153 9.83289 8.03957 9.89216 8.02664C10.8894 7.80921 11.8855 7.58625 12.8825 7.36787C14.5986 6.992 16.3157 6.62082 18.0313 6.24327C19.7599 5.86288 21.4873 5.47712 23.2802 5.08239ZM5.0325 9.3361C4.55802 9.59976 4.07794 9.85391 3.61061 10.1297C3.12574 10.4158 2.63362 10.7368 2.54388 11.3408C2.35404 12.6185 2.99878 13.3516 4.30215 13.443C5.07407 13.4971 5.84382 13.5861 6.61306 13.6726C6.90065 13.7049 7.18402 13.7748 7.50742 13.8346C7.12987 12.0102 6.76308 10.2378 6.3939 8.45383C5.92477 8.75922 5.50362 9.03338 5.0325 9.3361ZM29.6839 4.14093C28.9335 4.05149 28.1832 3.96206 27.4075 3.8696C27.7755 5.64546 28.143 7.41824 28.5002 9.14177C29.465 8.58533 30.3944 8.05145 31.3216 7.51391C32.0169 7.11084 32.4925 6.59407 32.381 5.69949C32.2987 5.03934 31.9727 4.5316 31.3241 4.37026C30.8145 4.24351 30.2808 4.21381 29.6839 4.14093ZM27.5934 11.3549C26.9617 8.30147 26.33 5.24807 25.6988 2.19713C25.5388 2.19713 25.4085 2.17949 25.2845 2.20025C24.8033 2.28084 24.7748 2.3143 24.8732 2.80162C25.2744 4.78766 25.6818 6.77243 26.089 8.75723C26.2883 9.72869 26.4922 10.6992 26.7107 11.7499C27.0308 11.6279 27.3078 11.5223 27.5934 11.3549ZM8.50968 7.42148C8.40964 6.94276 8.30959 6.46403 8.20405 5.95903C8.01008 6.00526 7.85019 6.0716 7.68859 6.07605C7.34352 6.08556 7.29035 6.21619 7.36204 6.54784C7.70067 8.11458 8.0042 9.68888 8.32789 11.2589C8.61699 12.6611 8.9161 14.0613 9.21927 15.5027C9.44469 15.4632 9.6438 15.4211 9.84498 15.3948C10.0962 15.362 10.1241 15.215 10.0795 15.003C9.83751 13.8523 9.59893 12.7008 9.36227 11.549C9.08396 10.1944 8.80881 8.83908 8.50968 7.42148Z" fill="#130E1D"/>
<path id="Vector_2" d="M39.0902 18.5394C38.9472 19.1116 38.8026 19.6497 38.6741 20.1282C38.9888 20.4044 39.4092 20.6517 39.6575 21.0162C40.2174 21.8379 39.9718 22.6618 39.5066 23.458C38.5534 25.0892 37.619 26.7313 36.6679 28.3637C36.1078 29.3248 35.5411 30.2824 34.9578 31.2294C34.4716 32.0187 33.7241 32.5471 33.0143 33.1133C32.174 33.7836 31.324 34.4606 30.8662 35.4706C30.3808 36.5418 29.934 37.6309 29.4858 38.7185C29.2265 39.3477 29.0963 39.4109 28.4223 39.4596C26.2633 39.6157 24.5234 38.6023 22.8099 37.5022C21.6452 36.7545 20.6648 35.8361 20.0789 34.5492C19.9016 34.16 19.8991 33.8246 20.1822 33.4686C20.8664 32.6082 21.5498 31.7444 22.1766 30.8425C22.3841 30.5439 22.4991 30.1279 22.5142 29.7597C22.5455 28.9972 22.4244 28.227 22.475 27.4672C22.5147 26.8699 22.6661 26.2656 22.8611 25.6963C23.1246 24.9273 23.4672 24.1844 23.7943 23.4383C24.2635 22.3684 24.3955 21.2252 24.5686 20.0877C24.6511 19.5454 24.6604 18.9772 25.0527 18.5193C25.4877 18.0116 26.0394 17.836 26.6879 18.0152C27.5194 18.2451 27.9932 18.8091 28.2209 19.6124C28.2664 19.7732 28.2994 19.9376 28.3563 20.1765C28.7095 19.5682 29.0321 19.0156 29.3519 18.4615C30.0502 17.2514 30.7579 16.0467 31.441 14.828C31.9638 13.8954 33.3706 13.3784 34.5259 14.4134C35.3668 13.7237 36.3161 13.5078 37.2109 14.2062C38.0658 14.8733 38.1107 15.812 37.6296 16.8054C38.4962 17.0669 38.9705 17.6406 39.0902 18.5394ZM31.2913 17.7848C30.0637 19.9165 28.838 22.0493 27.6065 24.1788C27.432 24.4806 27.2617 24.7948 27.0326 25.0527C26.6901 25.4383 26.108 25.271 25.9689 24.781C25.8548 24.3791 26.0895 24.079 26.2871 23.795C27.08 22.6546 27.1898 21.3933 26.9566 20.0815C26.9118 19.83 26.7108 19.5689 26.5111 19.3922C26.2851 19.1923 26.0654 19.2979 25.9909 19.5959C25.9379 19.808 25.9292 20.0307 25.8892 20.2466C25.7201 21.1601 25.6203 22.0949 25.3548 22.9799C25.0661 23.9422 24.6005 24.8501 24.2537 25.7969C24.055 26.3393 23.8491 26.9054 23.8072 27.4726C23.7473 28.2833 23.8595 29.1052 23.8476 29.9216C23.8425 30.2745 23.7982 30.679 23.6209 30.9673C23.0953 31.8223 22.5299 32.6585 21.9133 33.4501C21.3221 34.2088 21.2883 34.3185 21.9557 35.0098C21.9828 35.0379 22.0116 35.0646 22.0372 35.094C22.8077 35.9805 23.7953 36.5785 24.801 37.1441C25.7539 37.6799 26.7464 38.1199 27.8654 38.1737C28.0892 38.1844 28.2504 38.1386 28.3484 37.8987C28.6622 37.1313 29.0207 36.3817 29.3195 35.6088C29.8553 34.223 30.7575 33.1384 31.9313 32.2499C32.7667 31.6177 33.617 30.9974 34.1476 30.0495C34.792 28.8981 35.4532 27.756 36.1125 26.6131C36.9207 25.212 37.7415 23.818 38.5399 22.4114C38.6935 22.1408 38.7078 21.836 38.4118 21.6092C38.0959 21.3673 37.7566 21.4938 37.5019 21.9346C36.9447 22.899 36.391 23.8656 35.8168 24.8199C35.5575 25.2506 35.1988 25.3409 34.8304 25.1235C34.5452 24.9552 34.4679 24.5294 34.6806 24.1454C35.025 23.5234 35.3869 22.911 35.7417 22.2947C36.3746 21.1953 37.018 20.1016 37.6292 18.9902C37.7166 18.8312 37.7241 18.5448 37.6381 18.3895C37.3856 17.9331 36.8861 18.0205 36.5829 18.548C36.2602 19.1096 35.9406 19.6729 35.6166 20.2338C34.9693 21.3546 34.3286 22.4793 33.6669 23.5916C33.4223 24.0027 33.0932 24.0896 32.754 23.8967C32.4181 23.7056 32.3107 23.3603 32.5051 22.9618C32.6805 22.6021 32.8945 22.261 33.095 21.9137C33.8581 20.5921 34.6254 19.273 35.3853 17.9496C35.7656 17.2874 36.1323 16.6175 36.507 15.9521C36.6704 15.6619 36.5932 15.4155 36.3404 15.2406C36.0706 15.0538 35.7994 15.087 35.5842 15.3516C35.4947 15.4616 35.4162 15.5825 35.3457 15.7058C34.0924 17.8976 32.8417 20.0909 31.5886 22.2828C31.3448 22.7093 30.9447 22.8526 30.5816 22.6528C30.243 22.4665 30.1532 22.0569 30.3937 21.6288C30.9133 20.7038 31.4493 19.7879 31.9798 18.8689C32.5166 17.939 33.0601 17.013 33.5896 16.0789C33.7803 15.7424 33.7074 15.439 33.4306 15.2584C33.1321 15.0637 32.7836 15.1953 32.5404 15.6118C32.1288 16.3167 31.7262 17.0269 31.2913 17.7848Z" fill="#130E1D"/>
<path id="Vector_3" d="M19.9514 39.4534C18.6417 39.4592 17.353 39.5491 16.1325 39.1249C15.4198 38.8772 14.7449 38.5018 14.0897 38.1207C13.9189 38.0214 13.7856 37.6753 13.8071 37.4597C13.8951 36.5734 14.0219 35.6884 14.1868 34.8129C14.3756 33.8107 14.19 32.9231 13.5905 32.0939C13.2283 31.5931 12.8356 31.077 12.636 30.5052C12.3578 29.7084 12.1476 28.8602 12.0865 28.0211C11.9671 26.3815 11.5686 24.8351 10.8882 23.3491C10.6474 22.8229 10.5031 22.2717 10.588 21.6875C10.7061 20.8746 11.7259 20.284 12.6489 20.4964C13.2188 20.6276 13.7097 20.8958 14.0518 21.3917C14.0809 21.4338 14.1208 21.4703 14.1616 21.5018C14.1894 21.5233 14.2275 21.5314 14.3281 21.5738C14.3281 21.3901 14.3281 21.2416 14.3281 21.0931C14.3282 19.2313 14.3943 17.3665 14.3061 15.5089C14.2418 14.1538 15.3301 13.1974 16.7086 13.473C16.7211 13.4755 16.7346 13.4733 16.7054 13.4733C16.9361 13.1241 17.118 12.7622 17.379 12.4712C17.9466 11.8381 18.7004 11.8081 19.4258 12.0666C20.1319 12.3182 20.5594 12.8713 20.5763 13.6639C20.5817 13.9176 20.644 13.9894 20.9265 13.9415C22.0638 13.7486 23.108 14.6716 23.0789 15.732C23.0726 15.9626 23.078 16.1934 23.078 16.36C23.5813 16.435 24.0282 16.4668 24.4557 16.5749C24.8982 16.6868 25.1146 17.0799 24.992 17.4232C24.8413 17.8456 24.4755 18.0024 24.0101 17.8442C23.5163 17.6762 23.2629 17.8108 23.1403 18.3187C23.1044 18.4678 23.0818 18.624 23.081 18.7771C23.0757 19.7665 23.0786 20.756 23.078 21.7454C23.0776 22.416 22.9511 22.5808 22.4429 22.5773C21.9549 22.5739 21.8286 22.4082 21.8284 21.7639C21.8278 19.9543 21.8309 18.1446 21.8245 16.335C21.8237 16.1174 21.8317 15.8661 21.7301 15.6919C21.6208 15.5043 21.3882 15.2758 21.2076 15.2743C21.0269 15.2728 20.7893 15.497 20.6782 15.683C20.5751 15.8555 20.5827 16.108 20.5819 16.3255C20.5753 18.1872 20.5795 20.0489 20.5768 21.9106C20.576 22.401 20.4155 22.5714 19.9729 22.5773C19.5007 22.5835 19.3301 22.4136 19.3296 21.9111C19.3272 19.3724 19.3302 16.8337 19.3243 14.295C19.3239 14.0911 19.2879 13.8828 19.237 13.6846C19.1586 13.3792 18.9555 13.2385 18.6284 13.2748C18.3388 13.3069 18.1822 13.4544 18.1504 13.7415C18.1277 13.946 18.0817 14.1502 18.0813 14.3546C18.0764 16.8673 18.079 19.3799 18.0771 21.8926C18.0767 22.3929 17.9233 22.5661 17.491 22.5772C17.0124 22.5895 16.8307 22.4191 16.83 21.9291C16.8267 19.8721 16.8304 17.8151 16.8245 15.7581C16.824 15.567 16.7868 15.373 16.7432 15.1857C16.6795 14.9121 16.4971 14.7718 16.2108 14.7678C15.9245 14.7638 15.7329 14.8967 15.6682 15.1709C15.6182 15.3827 15.5822 15.6036 15.5819 15.8205C15.5766 19.2966 15.5786 22.7727 15.5773 26.2488C15.5771 26.7468 15.4404 26.9232 15.0488 26.9513C14.5287 26.9887 14.2895 26.8062 14.3376 26.2848C14.4668 24.8828 14.068 23.6474 13.2461 22.5323C13.0859 22.3148 12.9096 22.0816 12.6857 21.9472C12.5143 21.8443 12.2455 21.8411 12.0431 21.8896C11.9813 21.9045 11.9313 22.2601 11.9865 22.422C12.2624 23.2302 12.6367 24.0093 12.8582 24.8305C13.1024 25.736 13.2769 26.67 13.3755 27.6027C13.5093 28.8689 13.7353 30.0677 14.531 31.1239C14.9135 31.6316 15.2393 32.2303 15.4065 32.8384C15.573 33.4443 15.5705 34.1175 15.53 34.754C15.4809 35.5243 15.2986 36.2854 15.2143 37.055C15.2008 37.1779 15.3691 37.3766 15.5029 37.4506C16.2747 37.8774 17.1246 38.1003 17.9928 38.1091C19.1648 38.1209 20.3377 38.0185 21.5106 37.9773C21.8491 37.9654 22.2249 37.8734 22.4258 38.2991C22.6066 38.6824 22.4792 39.1155 22.0628 39.1954C21.3806 39.3263 20.6819 39.3718 19.9514 39.4534Z" fill="#130E1D"/>
</g>
<defs>
<clipPath id="clip0_4216_1050">
<rect width="40" height="40" fill="white" transform="translate(0.5)"/>
</clipPath>
</defs>
</svg>
