<svg  viewBox="0 0 41 40" fill="none" xmlns="http://www.w3.org/2000/svg">
<g id="equipment 1" clip-path="url(#clip0_4216_1018)">
<path id="Vector" d="M36.9844 4.45358C37.7395 4.4536 38.4555 4.45279 39.1715 4.45391C39.8229 4.45493 39.952 4.58053 39.9526 5.21855C39.9539 6.48138 39.9531 7.74421 39.9531 9.00703C39.9531 15.92 39.9532 22.833 39.9531 29.7461C39.9531 30.6343 39.8851 30.7035 39.0126 30.7035C29.4307 30.7036 19.8489 30.7057 10.267 30.6961C9.86166 30.6957 9.56909 30.7982 9.27771 31.0957C7.86587 32.5371 6.42459 33.9497 5.00385 35.3825C4.77493 35.6134 4.53404 35.7154 4.21057 35.7085C3.46883 35.6926 2.72653 35.7043 1.98445 35.7032C1.33326 35.7023 1.2042 35.5766 1.20359 34.9384C1.20235 33.6495 1.20314 32.3606 1.20314 31.0718C1.20314 24.1587 1.20565 17.2457 1.19702 10.3327C1.1965 9.91278 1.30517 9.62534 1.6466 9.33615C2.7426 8.40784 3.79057 7.42294 4.86047 6.46366C5.54422 5.85061 6.22267 5.2306 6.9297 4.64538C7.08872 4.51376 7.35679 4.46222 7.57496 4.46148C10.8947 4.45025 14.2145 4.45359 17.5343 4.45358C24.0047 4.45356 30.475 4.45358 36.9844 4.45358ZM31.4766 29.4536C33.7027 29.4536 35.9289 29.4539 38.155 29.4533C38.7015 29.4531 38.7028 29.4517 38.7029 28.8936C38.7032 21.3559 38.7032 13.8182 38.7029 6.28052C38.7029 5.70498 38.7018 5.70381 38.1329 5.7038C28.9289 5.70355 19.7248 5.70355 10.5208 5.7038C9.9544 5.70382 9.95335 5.70503 9.95333 6.2831C9.95308 13.8078 9.95309 21.3324 9.95328 28.8571C9.9533 29.4524 9.95416 29.4534 10.5429 29.4534C17.4947 29.4536 24.4466 29.4536 31.4766 29.4536ZM4.95312 20.5864C4.95312 24.8355 4.95312 29.0845 4.95312 33.4392C5.13122 33.2799 5.22774 33.2014 5.31537 33.114C6.32894 32.1026 7.33277 31.0812 8.35968 30.0836C8.61585 29.8347 8.71036 29.5836 8.70994 29.2312C8.70096 21.5901 8.70314 13.9491 8.70283 6.30802C8.70282 6.1779 8.71014 6.04615 8.69183 5.91834C8.6823 5.85183 8.62132 5.73651 8.58847 5.73821C8.26181 5.75505 7.83605 5.67055 7.62708 5.84319C6.5589 6.72572 5.54694 7.67628 4.51487 8.60255C3.98432 9.0787 3.47695 9.5853 2.91267 10.0175C2.57602 10.2754 2.44435 10.5369 2.44497 10.9575C2.45619 18.5725 2.45314 26.1875 2.45314 33.8025C2.45314 33.8155 2.45313 33.8285 2.45315 33.8416C2.45398 34.4533 2.454 34.4561 3.06618 34.4528C3.76361 34.449 3.70199 34.512 3.70215 33.8264C3.70372 26.7841 3.70311 19.7419 3.70318 12.6996C3.70318 12.4393 3.69799 12.1788 3.70554 11.9186C3.71771 11.4997 3.88991 11.3353 4.30779 11.3296C4.78033 11.3232 4.95125 11.493 4.95166 11.9951C4.95399 14.8328 4.95299 17.6705 4.95312 20.5864Z" fill="#130E1D"/>
<path id="Vector_2" d="M37.406 32.2685C37.2192 32.3894 37.0507 32.5595 36.8784 32.5635C35.7982 32.5882 34.7172 32.582 33.6366 32.5725C33.2357 32.569 33.0759 32.3701 33.0793 31.9408C33.0824 31.5334 33.2396 31.3364 33.6206 31.3328C34.7142 31.3223 35.808 31.3204 36.9016 31.3329C37.3686 31.3383 37.5008 31.5904 37.406 32.2685Z" fill="#130E1D"/>
<path id="Vector_3" d="M15.1336 32.5703C14.0194 32.5748 12.9391 32.5788 11.8589 32.5761C11.3772 32.5749 11.2067 32.4081 11.2043 31.9609C11.2018 31.5058 11.3702 31.3319 11.8427 31.3298C12.8709 31.3251 13.8991 31.3318 14.9273 31.3262C15.2458 31.3245 15.4956 31.4059 15.5682 31.7549C15.6543 32.1683 15.5421 32.3897 15.1336 32.5703Z" fill="#130E1D"/>
<path id="Vector_4" d="M31.4375 29.4531C24.4466 29.4531 17.4947 29.4531 10.5429 29.4529C9.95415 29.4529 9.95328 29.452 9.95327 28.8566C9.95307 21.3319 9.95307 13.8073 9.95331 6.28262C9.95333 5.70454 9.95438 5.70333 10.5208 5.70332C19.7248 5.70306 28.9288 5.70306 38.1329 5.70331C38.7018 5.70332 38.7029 5.7045 38.7029 6.28004C38.7031 13.8177 38.7032 21.3554 38.7029 28.8931C38.7028 29.4512 38.7015 29.4526 38.155 29.4528C35.9288 29.4534 33.7027 29.4531 31.4375 29.4531ZM10.9541 20.678C11.2656 21.4008 11.5201 22.1552 11.8998 22.8402C12.8375 24.5319 14.2367 25.7694 15.9563 26.6248C17.7581 27.5212 19.6793 27.7659 21.667 27.5033C23.8227 27.2185 25.6593 26.267 27.1869 24.744C28.0524 23.8811 28.7149 22.8639 29.2108 21.7338C29.9136 20.1324 30.085 18.4523 29.9244 16.7474C29.8013 15.441 29.3754 14.2032 28.7103 13.0525C27.6935 11.2935 26.2705 9.97881 24.4485 9.10115C22.6685 8.24371 20.7838 8.02437 18.8384 8.28091C16.7949 8.55038 15.0269 9.43114 13.5445 10.8378C12.1211 12.1884 11.1815 13.8437 10.7776 15.7771C10.4384 17.401 10.4758 19.0186 10.9541 20.678ZM30.5781 19.1015C30.5782 21.9131 30.5773 24.7247 30.5795 27.5363C30.5799 28.026 30.7412 28.1964 31.1841 28.202C31.6559 28.208 31.8251 28.0381 31.8267 27.5354C31.8302 26.455 31.8281 25.3746 31.8281 24.2942C31.8281 18.7621 31.8283 13.2301 31.8275 7.69798C31.8275 7.11664 31.6781 6.94756 31.1831 6.95415C30.7305 6.96019 30.5792 7.13202 30.579 7.65986C30.5777 11.4477 30.5782 15.2356 30.5781 19.1015ZM33.0784 12.5142C33.0985 13.0666 33.2316 13.2008 33.7791 13.2021C34.7812 13.2046 35.7833 13.2052 36.7854 13.2017C37.2866 13.1999 37.4499 13.0446 37.4512 12.559C37.4551 11.1144 37.455 9.66981 37.4512 8.22524C37.45 7.73704 37.2882 7.58144 36.7884 7.57956C35.7994 7.57583 34.8103 7.57708 33.8212 7.57868C33.2111 7.57967 33.0791 7.71543 33.0786 8.34205C33.0774 9.70854 33.0782 11.075 33.0784 12.5142ZM33.1365 24.7335C33.1649 25.2542 33.0703 25.8221 33.2479 26.2858C33.5939 27.1896 34.3307 27.5865 35.3331 27.5915C36.7642 27.5986 37.8357 26.2366 37.3707 24.6809C37.1081 23.8023 36.3325 23.2155 35.562 23.2034C34.2519 23.1829 33.5661 23.6003 33.1365 24.7335ZM36.1243 20.0798C35.672 20.1642 35.5445 20.3341 35.5803 20.8039C35.6085 21.1725 35.7817 21.3185 36.2088 21.3268C36.4168 21.3308 36.625 21.3313 36.833 21.3266C37.2811 21.3165 37.4485 21.1492 37.452 20.7153C37.4557 20.2583 37.2879 20.0882 36.8184 20.0793C36.6103 20.0754 36.4022 20.0787 36.1243 20.0798ZM33.083 20.5415C33.0766 21.1934 33.203 21.3255 33.8378 21.3277C34.0331 21.3284 34.229 21.3357 34.4236 21.3238C34.7978 21.3009 34.9524 21.1132 34.952 20.7017C34.9516 20.291 34.7965 20.1025 34.4207 20.0827C34.174 20.0697 33.9261 20.0832 33.6788 20.078C33.3855 20.0718 33.1749 20.1801 33.083 20.5415ZM37.452 18.17C37.3978 17.7084 37.2814 17.5909 36.8503 17.5802C36.6032 17.574 36.3552 17.5696 36.1086 17.5828C35.7338 17.6029 35.5791 17.7923 35.5792 18.2034C35.5793 18.6143 35.7341 18.8029 36.1092 18.8235C36.3428 18.8364 36.5777 18.8306 36.8119 18.8268C37.2791 18.8193 37.3969 18.7085 37.452 18.17ZM34.3378 18.8274C34.8285 18.7826 34.9618 18.6403 34.952 18.1718C34.9431 17.747 34.773 17.5877 34.3142 17.5792C34.1322 17.5758 33.9501 17.5769 33.7681 17.5787C33.2526 17.5837 33.0806 17.7391 33.0792 18.1988C33.0778 18.6635 33.2485 18.8218 33.7594 18.8275C33.9285 18.8294 34.0975 18.8278 34.3378 18.8274ZM37.2827 15.2C36.9532 15.1594 36.6244 15.0938 36.294 15.0839C35.7462 15.0676 35.576 15.2335 35.5792 15.7131C35.5823 16.1704 35.7544 16.3227 36.2751 16.3277C36.4053 16.3289 36.5355 16.3283 36.6657 16.3279C37.4086 16.3258 37.6537 15.9255 37.2827 15.2ZM33.0802 15.8002C33.1017 16.1697 33.3121 16.3283 33.667 16.3272C33.8883 16.3264 34.1097 16.3313 34.3309 16.3266C34.7806 16.317 34.9481 16.1501 34.952 15.7164C34.9561 15.2587 34.7883 15.0884 34.3185 15.0793C34.1233 15.0755 33.9279 15.0761 33.7326 15.079C33.2382 15.0866 33.1054 15.2211 33.0802 15.8002Z" fill="#F0F0F0"/>
<path id="Vector_5" d="M4.9531 20.5477C4.95297 17.6709 4.95397 14.8332 4.95164 11.9955C4.95123 11.4934 4.78032 11.3237 4.30777 11.3301C3.88989 11.3357 3.71769 11.5001 3.70552 11.919C3.69797 12.1792 3.70316 12.4397 3.70316 12.7C3.70309 19.7423 3.70371 26.7845 3.70213 33.8268C3.70197 34.5124 3.7636 34.4494 3.06616 34.4532C2.45398 34.4566 2.45396 34.4537 2.45313 33.842C2.45311 33.829 2.45312 33.8159 2.45312 33.8029C2.45312 26.1879 2.45617 18.5729 2.44495 10.9579C2.44433 10.5373 2.576 10.2758 2.91266 10.0179C3.47693 9.58571 3.9843 9.07912 4.51485 8.60296C5.54693 7.6767 6.55888 6.72613 7.62706 5.84361C7.83603 5.67096 8.26179 5.75547 8.58845 5.73862C8.6213 5.73693 8.68229 5.85224 8.69181 5.91876C8.71012 6.04657 8.7028 6.17832 8.70281 6.30843C8.70312 13.9495 8.70094 21.5905 8.70992 29.2316C8.71034 29.584 8.61583 29.8351 8.35966 30.084C7.33275 31.0816 6.32892 32.103 5.31535 33.1144C5.22772 33.2018 5.1312 33.2803 4.9531 33.4397C4.9531 29.0849 4.9531 24.8359 4.9531 20.5477Z" fill="#F0F0F0"/>
<path id="Vector_6" d="M10.9406 20.6489C10.4758 19.0181 10.4383 17.4005 10.7776 15.7766C11.1815 13.8432 12.121 12.1879 13.5445 10.8373C15.0269 9.43066 16.7949 8.54991 18.8383 8.28043C20.7837 8.02389 22.6685 8.24324 24.4485 9.10068C26.2705 9.97833 27.6935 11.293 28.7102 13.052C29.3754 14.2028 29.8012 15.4406 29.9243 16.7469C30.0849 18.4519 29.9135 20.1319 29.2108 21.7333C28.7149 22.8634 28.0523 23.8806 27.1869 24.7435C25.6593 26.2666 23.8226 27.218 21.667 27.5028C19.6793 27.7654 17.7581 27.5207 15.9562 26.6243C14.2367 25.7689 12.8375 24.5314 11.8997 22.8397C11.52 22.1547 11.2655 21.4003 10.9406 20.6489ZM14.0546 15.0776C13.625 15.0777 13.1939 15.1006 12.7664 15.0705C12.4384 15.0475 12.3133 15.1942 12.2198 15.4795C11.9029 16.4468 11.8982 17.4413 11.8995 18.4419C11.8999 18.7653 12.0283 18.8356 12.3162 18.8315C13.1883 18.8193 14.0606 18.8285 14.9328 18.8258C15.0565 18.8254 15.1802 18.8058 15.3206 18.7936C15.3122 18.7011 15.314 18.6502 15.3022 18.6027C15.1936 18.1632 15.0717 17.7266 14.9749 17.2846C14.8267 16.6083 15.0546 16.3284 15.7357 16.328C17.3109 16.327 18.8861 16.3276 20.4613 16.3276C21.9454 16.3277 23.4294 16.3258 24.9135 16.3291C25.4251 16.3303 25.5842 16.4982 25.5754 17.0141C25.5734 17.1294 25.5566 17.2465 25.5304 17.3589C25.4226 17.8217 25.3086 18.283 25.2009 18.7282C25.2507 18.7694 25.2699 18.7994 25.2894 18.7996C26.3299 18.8083 27.3705 18.8196 28.4108 18.8096C28.4819 18.8089 28.6094 18.6479 28.6127 18.5578C28.6507 17.545 28.6326 16.5386 28.3319 15.5521C28.2231 15.1952 28.0678 15.0676 27.6846 15.0688C23.1674 15.0826 18.6501 15.0776 14.0546 15.0776ZM17.5703 20.0776C15.793 20.0776 14.0157 20.0776 12.2321 20.0776C12.2321 20.1994 12.2165 20.2683 12.2344 20.327C12.5948 21.5086 13.2061 22.5439 14.0085 23.4832C14.3973 23.9382 14.8374 23.8301 15.3473 23.7915C15.222 23.2777 15.0957 22.8187 14.9999 22.3534C14.8259 21.5085 15.0993 21.3142 15.7786 21.3189C18.7187 21.3393 21.659 21.3276 24.5992 21.3277C24.7423 21.3277 24.8855 21.3257 25.0285 21.3299C25.3926 21.3405 25.5787 21.5332 25.5737 21.8942C25.5714 22.0605 25.5501 22.2291 25.515 22.3918C25.4157 22.8518 25.3048 23.3093 25.1967 23.7759C25.7888 23.8988 26.2817 23.8767 26.6273 23.3634C26.9805 22.8388 27.3738 22.3365 27.6778 21.7849C27.9604 21.2724 28.1484 20.7078 28.4156 20.0776C24.7435 20.0776 21.196 20.0776 17.5703 20.0776ZM20.9976 9.53111C20.225 9.56373 19.4328 9.49773 18.6834 9.64715C16.262 10.13 14.3973 11.464 13.081 13.5563C13.0394 13.6224 13.0276 13.7073 13.002 13.783C13.7956 13.783 14.5514 13.783 15.349 13.783C15.2173 13.2569 15.073 12.7872 14.9861 12.3071C14.878 11.7099 14.9357 11.3134 15.7503 11.3189C18.9575 11.3404 22.165 11.3277 25.4732 11.3277C24.1333 10.2611 22.6769 9.71546 20.9976 9.53111ZM23.9799 13.1165C24.0135 12.9574 24.0472 12.7982 24.0871 12.6094C21.5195 12.6094 19.003 12.6094 16.4851 12.6094C16.523 13.4254 16.7944 13.8167 17.3711 13.8208C19.2714 13.8343 21.1719 13.8327 23.0723 13.8217C23.6129 13.8186 23.7878 13.665 23.9799 13.1165ZM23.9391 18.2304C23.9876 18.0345 24.036 17.8386 24.0888 17.6252C21.5171 17.6252 18.9944 17.6252 16.4351 17.6252C16.4942 17.8514 16.5317 18.0269 16.586 18.197C16.728 18.6421 16.9463 18.822 17.4059 18.8236C19.2933 18.8301 21.1809 18.8311 23.0683 18.8219C23.4471 18.82 23.7876 18.7041 23.9391 18.2304ZM18.586 23.8276C19.9904 23.8276 21.3948 23.8282 22.7992 23.8273C23.7211 23.8268 23.973 23.5884 24.0516 22.614C21.527 22.614 19.0053 22.614 16.4812 22.614C16.5491 23.5671 16.8141 23.8266 17.6887 23.8275C17.9618 23.8278 18.2348 23.8276 18.586 23.8276ZM22.5703 25.0776C20.4198 25.0776 18.2693 25.0776 16.0546 25.0776C17.9212 26.6241 23.1618 26.6066 24.4212 25.0776C23.8162 25.0776 23.2323 25.0776 22.5703 25.0776ZM26.2809 12.0703C26.0544 11.85 25.8278 11.6298 25.6415 11.4487C25.5036 12.2335 25.3698 12.9947 25.23 13.7897C25.9949 13.7897 26.7571 13.7897 27.5194 13.7897C27.5462 13.7561 27.573 13.7225 27.5998 13.689C27.1734 13.1622 26.7471 12.6355 26.2809 12.0703Z" fill="#130E1D"/>
<path id="Vector_7" d="M30.5781 19.0616C30.5782 15.2347 30.5777 11.4469 30.579 7.65902C30.5792 7.13118 30.7305 6.95934 31.1831 6.95331C31.6781 6.94671 31.8274 7.1158 31.8275 7.69714C31.8283 13.2292 31.8281 18.7613 31.8281 24.2934C31.8281 25.3737 31.8302 26.4541 31.8267 27.5345C31.825 28.0372 31.6559 28.2072 31.1841 28.2012C30.7412 28.1956 30.5799 28.0251 30.5795 27.5355C30.5773 24.7239 30.5782 21.9123 30.5781 19.0616Z" fill="#130E1D"/>
<path id="Vector_8" d="M33.0784 12.4789C33.0783 11.076 33.0774 9.70955 33.0787 8.34306C33.0792 7.71644 33.2111 7.58068 33.8212 7.57969C34.8103 7.57808 35.7994 7.57684 36.7885 7.58056C37.2882 7.58245 37.45 7.73805 37.4513 8.22625C37.4551 9.67082 37.4552 11.1154 37.4513 12.56C37.4499 13.0456 37.2867 13.2009 36.7855 13.2027C35.7834 13.2062 34.7813 13.2056 33.7792 13.2031C33.2317 13.2018 33.0985 13.0676 33.0784 12.4789ZM34.3282 9.50023C34.3284 10.1891 34.3381 10.8782 34.3242 11.5669C34.3186 11.8451 34.3968 11.9737 34.6969 11.958C35.0728 11.9384 35.4512 11.9392 35.8272 11.9579C36.1189 11.9724 36.2127 11.8604 36.2075 11.5741C36.193 10.7945 36.1934 10.0142 36.2074 9.23459C36.2127 8.94155 36.133 8.80058 35.8136 8.82486C35.5164 8.84745 35.2161 8.82885 34.9171 8.82923C34.3314 8.82999 34.3314 8.83023 34.3282 9.50023Z" fill="#130E1D"/>
<path id="Vector_9" d="M33.1441 24.7024C33.5662 23.6007 34.252 23.1833 35.562 23.2038C36.3326 23.2159 37.1082 23.8027 37.3708 24.6813C37.8358 26.237 36.7643 27.599 35.3331 27.5919C34.3308 27.587 33.594 27.19 33.2479 26.2862C33.0704 25.8225 33.1649 25.2546 33.1441 24.7024ZM35.0995 26.2476C35.2031 26.2467 35.3076 26.254 35.4103 26.2435C35.7518 26.2088 36.0539 25.921 36.1166 25.5788C36.1866 25.1963 36.0216 24.8003 35.727 24.6437C35.2442 24.3872 34.6873 24.5524 34.4808 25.0135C34.2531 25.5221 34.4785 26.0234 35.0995 26.2476Z" fill="#130E1D"/>
<path id="Vector_10" d="M36.1592 20.08C36.4022 20.0794 36.6104 20.0761 36.8184 20.08C37.2879 20.0889 37.4558 20.259 37.452 20.7159C37.4485 21.1498 37.2811 21.3172 36.8331 21.3273C36.6251 21.332 36.4168 21.3315 36.2088 21.3275C35.7818 21.3192 35.6085 21.1732 35.5804 20.8045C35.5445 20.3348 35.6721 20.1649 36.1592 20.08Z" fill="#130E1D"/>
<path id="Vector_11" d="M33.0866 20.5088C33.175 20.1794 33.3856 20.0711 33.6788 20.0773C33.9261 20.0825 34.1741 20.069 34.4208 20.082C34.7966 20.1018 34.9516 20.2903 34.952 20.701C34.9524 21.1125 34.7979 21.3002 34.4236 21.3231C34.229 21.335 34.0332 21.3278 33.8379 21.3271C33.2031 21.3248 33.0766 21.1927 33.0866 20.5088Z" fill="#130E1D"/>
<path id="Vector_12" d="M37.452 18.2028C37.3969 18.7085 37.2791 18.8193 36.8119 18.8268C36.5777 18.8306 36.3428 18.8364 36.1092 18.8236C35.7341 18.8029 35.5793 18.6143 35.5792 18.2034C35.5791 17.7923 35.7338 17.6029 36.1086 17.5828C36.3552 17.5696 36.6032 17.574 36.8503 17.5802C37.2814 17.5909 37.3978 17.7084 37.452 18.2028Z" fill="#130E1D"/>
<path id="Vector_13" d="M34.3022 18.8268C34.0975 18.827 33.9285 18.8286 33.7595 18.8267C33.2485 18.821 33.0779 18.6627 33.0792 18.198C33.0806 17.7383 33.2526 17.5829 33.7681 17.5779C33.9501 17.5761 34.1322 17.575 34.3142 17.5784C34.773 17.5869 34.9431 17.7462 34.952 18.171C34.9619 18.6395 34.8285 18.7818 34.3022 18.8268Z" fill="#130E1D"/>
<path id="Vector_14" d="M37.3057 15.222C37.6537 15.9247 37.4086 16.325 36.6657 16.3271C36.5355 16.3275 36.4053 16.3281 36.2752 16.3268C35.7545 16.3218 35.5823 16.1695 35.5793 15.7123C35.576 15.2327 35.7463 15.0668 36.294 15.0831C36.6245 15.093 36.9532 15.1586 37.3057 15.222Z" fill="#130E1D"/>
<path id="Vector_15" d="M33.0797 15.7674C33.1054 15.2206 33.2382 15.0861 33.7326 15.0786C33.9279 15.0756 34.1233 15.075 34.3185 15.0788C34.7883 15.088 34.9561 15.2582 34.952 15.7159C34.9482 16.1497 34.7806 16.3165 34.3309 16.3261C34.1097 16.3309 33.8883 16.326 33.667 16.3267C33.3121 16.3279 33.1017 16.1693 33.0797 15.7674Z" fill="#130E1D"/>
<path id="Vector_16" d="M14.0938 15.0778C18.6501 15.0778 23.1674 15.0828 27.6847 15.069C28.0679 15.0678 28.2231 15.1954 28.3319 15.5523C28.6327 16.5388 28.6508 17.5451 28.6128 18.558C28.6094 18.6481 28.482 18.8091 28.4109 18.8098C27.3705 18.8198 26.33 18.8085 25.2895 18.7997C25.27 18.7996 25.2507 18.7696 25.201 18.7284C25.3087 18.2832 25.4227 17.8219 25.5304 17.3591C25.5566 17.2466 25.5735 17.1296 25.5755 17.0143C25.5843 16.4984 25.4251 16.3305 24.9136 16.3293C23.4295 16.326 21.9454 16.3279 20.4614 16.3278C18.8862 16.3278 17.311 16.3272 15.7358 16.3282C15.0547 16.3286 14.8268 16.6085 14.9749 17.2848C15.0718 17.7268 15.1937 18.1634 15.3023 18.6029C15.314 18.6504 15.3122 18.7013 15.3207 18.7938C15.1803 18.806 15.0566 18.8256 14.9329 18.826C14.0607 18.8287 13.1883 18.8195 12.3163 18.8317C12.0283 18.8358 11.8999 18.7655 11.8995 18.4421C11.8982 17.4415 11.9029 16.447 12.2198 15.4797C12.3133 15.1943 12.4385 15.0477 12.7664 15.0707C13.1939 15.1007 13.6251 15.0779 14.0938 15.0778Z" fill="#F0F0F0"/>
<path id="Vector_17" d="M17.6093 20.0781C21.196 20.0781 24.7436 20.0781 28.4156 20.0781C28.1484 20.7083 27.9604 21.2729 27.6779 21.7854C27.3738 22.337 26.9805 22.8393 26.6274 23.3639C26.2818 23.8772 25.7888 23.8993 25.1967 23.7764C25.3049 23.3098 25.4157 22.8523 25.515 22.3923C25.5501 22.2296 25.5714 22.061 25.5737 21.8948C25.5788 21.5338 25.3926 21.341 25.0286 21.3304C24.8856 21.3262 24.7424 21.3282 24.5993 21.3282C21.659 21.3281 18.7187 21.3398 15.7787 21.3194C15.0993 21.3147 14.8259 21.509 14.9999 22.3539C15.0957 22.8192 15.222 23.2782 15.3473 23.792C14.8374 23.8306 14.3973 23.9388 14.0086 23.4838C13.2061 22.5445 12.5948 21.5091 12.2344 20.3275C12.2165 20.2688 12.2321 20.1999 12.2321 20.0781C14.0157 20.0781 15.793 20.0781 17.6093 20.0781Z" fill="#F0F0F0"/>
<path id="Vector_18" d="M21.0336 9.53125C22.677 9.71531 24.1334 10.261 25.4733 11.3275C22.165 11.3275 18.9576 11.3402 15.7504 11.3187C14.9358 11.3132 14.8781 11.7097 14.9862 12.307C15.0731 12.7871 15.2174 13.2567 15.3491 13.7828C14.5515 13.7828 13.7957 13.7828 13.0021 13.7828C13.0276 13.7072 13.0395 13.6223 13.0811 13.5561C14.3974 11.4638 16.2621 10.1298 18.6835 9.647C19.4329 9.49758 20.2251 9.56358 21.0336 9.53125Z" fill="#F0F0F0"/>
<path id="Vector_19" d="M23.9664 13.1441C23.7879 13.6649 23.613 13.8186 23.0724 13.8217C21.172 13.8326 19.2715 13.8343 17.3712 13.8208C16.7944 13.8167 16.5231 13.4253 16.4852 12.6094C19.0031 12.6094 21.5196 12.6094 24.0872 12.6094C24.0473 12.7982 24.0136 12.9573 23.9664 13.1441Z" fill="#F0F0F0"/>
<path id="Vector_20" d="M23.9329 18.2599C23.7877 18.7039 23.4471 18.8198 23.0684 18.8217C21.1809 18.8309 19.2934 18.8299 17.4059 18.8234C16.9463 18.8218 16.728 18.6419 16.586 18.1968C16.5318 18.0267 16.4942 17.8512 16.4352 17.625C18.9945 17.625 21.5172 17.625 24.0889 17.625C24.0361 17.8384 23.9876 18.0343 23.9329 18.2599Z" fill="#F0F0F0"/>
<path id="Vector_21" d="M18.547 23.8289C18.2349 23.8289 17.9619 23.8291 17.6888 23.8288C16.8142 23.8279 16.5492 23.5684 16.4813 22.6152C19.0054 22.6152 21.5271 22.6152 24.0517 22.6152C23.9731 23.5897 23.7212 23.828 22.7993 23.8286C21.3949 23.8295 19.9905 23.8289 18.547 23.8289Z" fill="#F0F0F0"/>
<path id="Vector_22" d="M22.6093 25.0781C23.2323 25.0781 23.8162 25.0781 24.4212 25.0781C23.1618 26.6071 17.9212 26.6246 16.0546 25.0781C18.2693 25.0781 20.4198 25.0781 22.6093 25.0781Z" fill="#F0F0F0"/>
<path id="Vector_23" d="M26.3009 12.0901C26.7472 12.6361 27.1735 13.1628 27.5999 13.6895C27.5731 13.7231 27.5463 13.7567 27.5195 13.7902C26.7572 13.7902 25.995 13.7902 25.2301 13.7902C25.3698 12.9953 25.5036 12.2341 25.6416 11.4492C25.8279 11.6303 26.0545 11.8506 26.3009 12.0901Z" fill="#F0F0F0"/>
<path id="Vector_24" d="M34.3281 9.46061C34.3314 8.82837 34.3314 8.82812 34.9171 8.82737C35.216 8.82698 35.5163 8.84558 35.8136 8.82299C36.133 8.79872 36.2126 8.93969 36.2073 9.23272C36.1933 10.0124 36.193 10.7926 36.2074 11.5722C36.2127 11.8586 36.1188 11.9706 35.8272 11.9561C35.4512 11.9374 35.0728 11.9366 34.6968 11.9562C34.3968 11.9718 34.3185 11.8432 34.3241 11.565C34.338 10.8764 34.3283 10.1873 34.3281 9.46061Z" fill="#F0F0F0"/>
<path id="Vector_25" d="M35.0669 26.247C34.4784 26.0239 34.253 25.5226 34.4807 25.0141C34.6872 24.553 35.2441 24.3877 35.7269 24.6443C36.0215 24.8009 36.1865 25.1969 36.1165 25.5794C36.0538 25.9216 35.7517 26.2093 35.4102 26.2441C35.3075 26.2545 35.203 26.2473 35.0669 26.247Z" fill="#F0F0F0"/>
</g>
<defs>
<clipPath id="clip0_4216_1018">
<rect width="40" height="40" fill="white" transform="translate(0.5)"/>
</clipPath>
</defs>
</svg>
