<svg  viewBox="0 0 41 40" fill="none" xmlns="http://www.w3.org/2000/svg">
<g id="food-package 1" clip-path="url(#clip0_4216_1067)">
<path id="Vector" d="M6.35932 40.0781C4.43351 40.0781 2.50771 40.0781 0.582153 40.0781C0.582405 26.7448 0.582405 13.4115 0.582405 0.078125C2.48652 0.078125 4.38631 0.078125 6.31503 0.106245C6.271 0.565916 6.13469 0.997409 6.13429 1.42903C6.12286 13.8291 6.12242 26.2293 6.13495 38.6294C6.13543 39.1124 6.28123 39.5952 6.35932 40.0781Z" fill="#F0F0F0"/>
<path id="Vector_2" d="M34.7969 0.078125C36.7227 0.078125 38.6485 0.078125 40.574 0.0781252C40.5738 13.4115 40.5738 26.7448 40.5738 40.0781C38.6697 40.0781 36.7699 40.0781 34.8411 40.05C34.8852 39.5903 35.0216 39.1589 35.022 38.7273C35.0334 26.3271 35.0339 13.927 35.0214 1.52683C35.0209 1.04385 34.875 0.561023 34.7969 0.078125Z" fill="#F0F0F0"/>
<path id="Vector_3" d="M34.7609 0.0781252C34.875 0.561023 35.0209 1.04385 35.0214 1.52683C35.0339 13.927 35.0335 26.3271 35.022 38.7273C35.0216 39.1589 34.8852 39.5903 34.8045 40.05C25.3422 40.0781 15.8874 40.0781 6.39603 40.0781C6.28133 39.5952 6.13553 39.1124 6.13504 38.6294C6.12252 26.2293 6.12296 13.8291 6.13439 1.42903C6.13478 0.997409 6.2711 0.565916 6.35174 0.106245C6.64792 0.0781252 6.93643 0.0781252 7.27455 0.100479C7.73979 0.357659 8.15291 0.597136 8.57311 0.823476C8.6595 0.870011 8.79904 0.917047 8.86867 0.879542C9.34114 0.625043 9.80143 0.347931 10.2657 0.0781251C10.5542 0.0781252 10.8427 0.0781252 11.1808 0.100478C11.6945 0.375854 12.1569 0.632136 12.6248 0.877996C12.687 0.910686 12.7946 0.921692 12.8514 0.889814C13.3216 0.626312 13.7848 0.350329 14.25 0.0781252C14.5385 0.0781252 14.8271 0.0781252 15.1652 0.100401C15.679 0.374111 16.1411 0.629159 16.6094 0.87249C16.6691 0.903548 16.7766 0.901062 16.8349 0.867362C17.2792 0.610829 17.7167 0.342666 18.1563 0.0781252C18.4448 0.0781252 18.7333 0.0781252 19.0714 0.100474C19.5367 0.357657 19.9499 0.597141 20.3701 0.823488C20.4565 0.870024 20.596 0.917064 20.6657 0.879555C21.1381 0.625053 21.5983 0.347935 22.0625 0.0781252C22.351 0.0781252 22.6396 0.0781252 22.9777 0.100479C23.4914 0.375863 23.9538 0.63215 24.4217 0.878017C24.4839 0.910708 24.5914 0.921711 24.6483 0.889833C25.1185 0.626324 25.5816 0.350335 26.0469 0.078125C26.3354 0.0781252 26.6239 0.0781252 26.962 0.100536C27.4754 0.374772 27.9373 0.630241 28.4054 0.873884C28.4651 0.90492 28.5726 0.901555 28.6312 0.867728C29.0756 0.611035 29.5134 0.342778 29.9532 0.0781252C30.2417 0.0781252 30.5302 0.0781252 30.8683 0.100478C31.382 0.374509 31.8449 0.628607 32.3121 0.874386C32.3628 0.901057 32.4529 0.904188 32.5009 0.876688C32.9567 0.615633 33.4073 0.345585 33.8594 0.0781252C34.1479 0.0781252 34.4364 0.0781252 34.7609 0.0781252ZM15.6954 38.7487C21.4751 38.7486 27.2548 38.7489 33.0345 38.7479C33.6576 38.7478 33.7015 38.7035 33.7023 38.083C33.7043 36.6381 33.7032 35.1932 33.7032 33.7482C33.7032 25.4561 33.7032 17.164 33.703 8.87194C33.7029 8.09969 33.6856 8.0825 33.0364 8.45804C32.6484 8.68249 32.2884 8.69849 31.8957 8.47607C31.5338 8.27104 31.148 8.10849 30.7816 7.91083C30.5259 7.77288 30.2999 7.78066 30.048 7.9291C29.7009 8.13361 29.331 8.2989 28.98 8.49717C28.6553 8.6806 28.3392 8.68027 28.0121 8.51597C27.6166 8.31734 27.2307 8.0914 26.8176 7.9397C26.6131 7.86458 26.3327 7.86595 26.1298 7.94437C25.7443 8.09334 25.3878 8.31901 25.0231 8.51964C24.7101 8.69178 24.4076 8.68274 24.0934 8.51697C23.702 8.31053 23.3131 8.09179 22.9015 7.93489C22.708 7.86113 22.44 7.85712 22.2483 7.9313C21.8749 8.07577 21.5271 8.29011 21.1767 8.48953C20.843 8.67944 20.5203 8.69982 20.1769 8.51269C19.8456 8.33218 19.4904 8.1934 19.1682 7.99904C18.791 7.7715 18.4585 7.75443 18.0883 8.02336C17.8384 8.20491 17.5297 8.30317 17.2641 8.46618C16.8914 8.69498 16.5302 8.68402 16.1533 8.49007C15.7831 8.29959 15.4022 8.1292 15.0373 7.92943C14.7804 7.78879 14.5502 7.79808 14.3015 7.94113C13.9745 8.12918 13.6336 8.29296 13.307 8.48164C12.9468 8.68977 12.602 8.69348 12.2355 8.48916C11.872 8.28655 11.5039 8.08074 11.1147 7.94065C10.9089 7.8666 10.6329 7.87054 10.4259 7.94411C10.0988 8.06034 9.79558 8.25238 9.49595 8.43482C9.07732 8.68972 8.67473 8.71288 8.24865 8.44969C8.0355 8.31803 7.7954 8.23002 7.503 8.09178C7.48116 8.3477 7.45507 8.51088 7.45504 8.67408C7.45311 18.4762 7.45309 28.2783 7.45392 38.0804C7.45397 38.703 7.4986 38.7475 8.11919 38.7478C10.6185 38.7494 13.1179 38.7486 15.6954 38.7487ZM9.32987 6.99099C9.52371 6.88464 9.72763 6.79308 9.90947 6.66912C10.4204 6.32087 10.9261 6.246 11.4676 6.61065C11.6817 6.75483 11.9422 6.82911 12.1605 6.96826C12.5509 7.21712 12.9104 7.25636 13.308 6.96604C13.5681 6.77609 13.8797 6.65787 14.1618 6.49633C14.4952 6.3054 14.8233 6.29603 15.1652 6.47335C15.5464 6.67107 15.9419 6.84265 16.3151 7.05402C16.6146 7.22362 16.8725 7.19229 17.1546 7.02073C17.4542 6.83857 17.7771 6.69516 18.081 6.51957C18.4407 6.31173 18.7854 6.30578 19.1525 6.50954C19.5277 6.71775 19.9089 6.92337 20.308 7.07663C20.4904 7.14669 20.747 7.14925 20.9264 7.07588C21.3217 6.91417 21.6913 6.68848 22.0676 6.48188C22.38 6.31033 22.6824 6.31523 22.9971 6.48157C23.3767 6.68225 23.7708 6.85593 24.1471 7.06225C24.4249 7.21454 24.6669 7.23208 24.9464 7.05067C25.2618 6.84599 25.613 6.69748 25.938 6.50642C26.258 6.31828 26.5775 6.30141 26.9069 6.45713C27.2598 6.62399 27.6249 6.7733 27.955 6.9781C28.3651 7.23254 28.6973 7.15841 29.1066 6.93533C30.6219 6.10942 30.2663 6.19705 31.5952 6.83675C31.6186 6.84804 31.6446 6.85638 31.6646 6.8722C32.2179 7.31027 32.7327 7.16196 33.2687 6.81057C33.5598 6.61967 33.7117 6.41574 33.7077 6.05738C33.6936 4.80808 33.7042 3.55851 33.6997 2.30907C33.6992 2.17759 33.6609 2.04624 33.6317 1.86183C33.4341 1.96415 33.291 2.02365 33.1634 2.10693C32.7034 2.40722 32.2533 2.42787 31.7764 2.12894C31.491 1.95007 31.1679 1.83253 30.8731 1.66721C30.5851 1.50573 30.3228 1.48955 30.032 1.67087C29.7236 1.86318 29.388 2.01125 29.0732 2.19405C28.7174 2.40066 28.3708 2.42879 28.0004 2.22835C27.6343 2.03026 27.2497 1.86613 26.8855 1.66489C26.5908 1.50207 26.3323 1.51557 26.0443 1.68916C25.6996 1.89691 25.3462 2.10962 24.9685 2.23632C24.7223 2.31888 24.4061 2.31558 24.157 2.23722C23.7891 2.12148 23.439 1.92766 23.1069 1.72506C22.7263 1.4928 22.3833 1.5079 22.0144 1.73828C21.7281 1.91709 21.4201 2.06096 21.1249 2.22586C20.8146 2.39918 20.512 2.39804 20.196 2.23162C19.793 2.01944 19.3921 1.79518 18.9682 1.63476C18.7768 1.56235 18.5101 1.57465 18.316 1.64904C17.9665 1.78302 17.6387 1.98044 17.3154 2.17392C16.9331 2.40267 16.5582 2.42042 16.1683 2.20822C16.0541 2.14604 15.9243 2.10737 15.8205 2.03198C15.0893 1.50089 14.3692 1.43795 13.6284 2.02544C13.0645 2.47267 12.512 2.36357 11.895 2.04243C10.5678 1.35174 10.9698 1.34574 9.67911 2.05017C9.64486 2.06887 9.60716 2.0821 9.57505 2.10378C9.10342 2.42218 8.63175 2.43368 8.15623 2.11085C8.0922 2.06739 8.01768 2.03912 7.94726 2.00538C7.53039 1.80564 7.45705 1.84826 7.45542 2.32494C7.45114 3.57438 7.4604 4.82391 7.45029 6.07329C7.44754 6.41265 7.55681 6.64882 7.88113 6.77908C8.04964 6.84676 8.21664 6.92631 8.36902 7.02431C8.67895 7.22364 8.97734 7.21918 9.32987 6.99099Z" fill="#130E1D"/>
<path id="Vector_4" d="M14.2134 0.078125C13.7848 0.350329 13.3216 0.626312 12.8515 0.889814C12.7946 0.921692 12.687 0.910686 12.6248 0.877996C12.157 0.632136 11.6945 0.375854 11.2168 0.100478C12.1944 0.078125 13.1856 0.078125 14.2134 0.078125Z" fill="#F0F0F0"/>
<path id="Vector_5" d="M26.0103 0.078125C25.5816 0.350335 25.1185 0.626323 24.6483 0.889833C24.5914 0.921711 24.4839 0.910708 24.4217 0.878017C23.9538 0.63215 23.4914 0.375862 23.0137 0.100479C23.9913 0.0781252 24.9825 0.0781252 26.0103 0.078125Z" fill="#F0F0F0"/>
<path id="Vector_6" d="M10.2291 0.078125C9.80145 0.347931 9.34115 0.625043 8.86868 0.879542C8.79905 0.917047 8.65951 0.87001 8.57312 0.823476C8.15292 0.597136 7.7398 0.357659 7.31055 0.100479C8.2621 0.0781251 9.22727 0.0781251 10.2291 0.078125Z" fill="#F0F0F0"/>
<path id="Vector_7" d="M22.0259 0.078125C21.5984 0.347935 21.1381 0.625053 20.6657 0.879555C20.596 0.917064 20.4565 0.870024 20.3701 0.823488C19.9499 0.597141 19.5367 0.357657 19.1074 0.100474C20.059 0.078125 21.0241 0.078125 22.0259 0.078125Z" fill="#F0F0F0"/>
<path id="Vector_8" d="M33.8228 0.078125C33.4073 0.345585 32.9567 0.615633 32.5009 0.876688C32.4529 0.904188 32.3629 0.901057 32.3122 0.874386C31.8449 0.628607 31.3821 0.374509 30.9043 0.100478C31.8558 0.078125 32.821 0.078125 33.8228 0.078125Z" fill="#F0F0F0"/>
<path id="Vector_9" d="M18.1196 0.078125C17.7166 0.342666 17.2791 0.610829 16.8349 0.867362C16.7765 0.901062 16.6691 0.903548 16.6093 0.872489C16.1411 0.629159 15.6789 0.374111 15.2012 0.100401C16.1527 0.078125 17.1178 0.078125 18.1196 0.078125Z" fill="#F0F0F0"/>
<path id="Vector_10" d="M29.9165 0.078125C29.5133 0.342778 29.0756 0.611035 28.6312 0.867728C28.5726 0.901555 28.465 0.90492 28.4054 0.873884C27.9373 0.630241 27.4753 0.374771 26.9979 0.100536C27.9495 0.078125 28.9147 0.078125 29.9165 0.078125Z" fill="#F0F0F0"/>
<path id="Vector_11" d="M15.6563 38.7488C13.1178 38.7487 10.6185 38.7495 8.11916 38.748C7.49856 38.7476 7.45394 38.7032 7.45389 38.0806C7.45306 28.2785 7.45308 18.4763 7.455 8.67423C7.45504 8.51104 7.48112 8.34785 7.50297 8.09193C7.79537 8.23017 8.03547 8.31818 8.24862 8.44984C8.6747 8.71303 9.07729 8.68987 9.49591 8.43498C9.79555 8.25253 10.0988 8.06049 10.4259 7.94426C10.6329 7.87069 10.9089 7.86675 11.1146 7.9408C11.5039 8.08089 11.872 8.28671 12.2355 8.48932C12.602 8.69363 12.9468 8.68992 13.307 8.48179C13.6336 8.29312 13.9745 8.12934 14.3014 7.94128C14.5501 7.79823 14.7804 7.78895 15.0373 7.92958C15.4022 8.12935 15.7831 8.29974 16.1533 8.49022C16.5302 8.68417 16.8914 8.69513 17.2641 8.46633C17.5296 8.30332 17.8383 8.20506 18.0883 8.02351C18.4585 7.75458 18.7909 7.77165 19.1682 7.99919C19.4904 8.19355 19.8456 8.33233 20.1769 8.51284C20.5203 8.69998 20.843 8.67959 21.1767 8.48968C21.5271 8.29026 21.8748 8.07592 22.2483 7.93145C22.44 7.85727 22.708 7.86128 22.9015 7.93504C23.313 8.09194 23.702 8.31068 24.0934 8.51712C24.4076 8.6829 24.7101 8.69193 25.023 8.51979C25.3878 8.31916 25.7442 8.09349 26.1297 7.94452C26.3327 7.8661 26.6131 7.86473 26.8176 7.93985C27.2306 8.09156 27.6166 8.3175 28.0121 8.51612C28.3392 8.68042 28.6552 8.68076 28.98 8.49732C29.331 8.29905 29.7009 8.13377 30.048 7.92925C30.2999 7.78081 30.5258 7.77303 30.7815 7.91098C31.148 8.10864 31.5337 8.2712 31.8957 8.47622C32.2884 8.69864 32.6484 8.68264 33.0364 8.4582C33.6856 8.08266 33.7029 8.09984 33.7029 8.87209C33.7032 17.1642 33.7031 25.4563 33.7031 33.7484C33.7031 35.1933 33.7043 36.6383 33.7023 38.0832C33.7014 38.7036 33.6576 38.7479 33.0345 38.748C27.2548 38.7491 21.475 38.7487 15.6563 38.7488ZM18.3468 28.6045C19.3735 29.0532 20.4626 29.0914 21.5342 28.9407C24.7302 28.4914 27.0533 25.4018 26.6489 22.2151C26.2083 18.744 23.1379 16.398 19.6734 16.8853C16.3574 17.3516 13.9949 20.5378 14.5432 23.8353C14.9193 26.0969 16.2124 27.6545 18.3468 28.6045Z" fill="#F0F0F0"/>
<path id="Vector_12" d="M9.30438 7.00414C8.97729 7.21948 8.67891 7.22394 8.36897 7.02462C8.2166 6.92662 8.04959 6.84706 7.88109 6.77938C7.55676 6.64912 7.4475 6.41296 7.45025 6.07359C7.46036 4.82421 7.4511 3.57469 7.45538 2.32524C7.45701 1.84857 7.53035 1.80594 7.94721 2.00569C8.01763 2.03943 8.09216 2.06769 8.15618 2.11116C8.63171 2.43399 9.10337 2.42248 9.57501 2.10409C9.60712 2.08241 9.64481 2.06918 9.67907 2.05048C10.9698 1.34604 10.5678 1.35205 11.8949 2.04274C12.512 2.36388 13.0644 2.47298 13.6284 2.02575C14.3692 1.43826 15.0892 1.5012 15.8204 2.03228C15.9242 2.10768 16.054 2.14635 16.1683 2.20852C16.5581 2.42073 16.933 2.40298 17.3153 2.17422C17.6387 1.98074 17.9665 1.78333 18.316 1.64934C18.51 1.57496 18.7768 1.56266 18.9682 1.63506C19.3921 1.79549 19.793 2.01975 20.1959 2.23193C20.5119 2.39834 20.8145 2.39949 21.1248 2.22617C21.4201 2.06127 21.728 1.9174 22.0144 1.73859C22.3833 1.50821 22.7262 1.49311 23.1069 1.72536C23.4389 1.92796 23.789 2.12179 24.1569 2.23752C24.4061 2.31589 24.7223 2.31919 24.9684 2.23663C25.3462 2.10993 25.6995 1.89722 26.0442 1.68947C26.3323 1.51587 26.5908 1.50237 26.8855 1.6652C27.2497 1.86644 27.6343 2.03057 28.0003 2.22866C28.3708 2.4291 28.7173 2.40097 29.0731 2.19435C29.3879 2.01155 29.7236 1.86349 30.032 1.67117C30.3228 1.48986 30.5851 1.50603 30.873 1.66752C31.1678 1.83283 31.4909 1.95037 31.7763 2.12924C32.2533 2.42818 32.7033 2.40753 33.1634 2.10724C33.291 2.02396 33.4341 1.96446 33.6317 1.86213C33.6609 2.04655 33.6992 2.17789 33.6997 2.30937C33.7042 3.55882 33.6935 4.80839 33.7076 6.05769C33.7117 6.41605 33.5598 6.61998 33.2686 6.81088C32.7327 7.16227 32.2179 7.31058 31.6646 6.87251C31.6446 6.85669 31.6186 6.84834 31.5951 6.83705C30.2663 6.19736 30.6219 6.10973 29.1066 6.93564C28.6973 7.15872 28.365 7.23285 27.9549 6.97841C27.6248 6.77361 27.2597 6.62429 26.9068 6.45743C26.5775 6.30171 26.258 6.31859 25.938 6.50672C25.613 6.69779 25.2618 6.8463 24.9464 7.05098C24.6669 7.23239 24.4248 7.21485 24.147 7.06256C23.7707 6.85624 23.3767 6.68255 22.9971 6.48188C22.6824 6.31553 22.38 6.31063 22.0675 6.48219C21.6913 6.68879 21.3216 6.91447 20.9263 7.07618C20.747 7.14956 20.4904 7.14699 20.3079 7.07694C19.9089 6.92368 19.5277 6.71806 19.1525 6.50984C18.7854 6.30609 18.4407 6.31204 18.081 6.51987C17.7771 6.69547 17.4542 6.83888 17.1546 7.02104C16.8725 7.19259 16.6145 7.22393 16.3151 7.05433C15.9419 6.84296 15.5464 6.67138 15.1652 6.47366C14.8233 6.29634 14.4952 6.30571 14.1617 6.49664C13.8796 6.65817 13.5681 6.7764 13.3079 6.96635C12.9103 7.25667 12.5509 7.21742 12.1604 6.96857C11.9421 6.82941 11.6816 6.75514 11.4675 6.61096C10.926 6.24631 10.4203 6.32118 9.90942 6.66943C9.72758 6.79338 9.52366 6.88495 9.30438 7.00414Z" fill="#F0F0F0"/>
<path id="Vector_13" d="M18.3194 28.5916C16.2125 27.6535 14.9194 26.0959 14.5433 23.8343C13.995 20.5369 16.3574 17.3507 19.6734 16.8843C23.138 16.397 26.2084 18.7431 26.6489 22.2141C27.0534 25.4009 24.7303 28.4904 21.5343 28.9398C20.4626 29.0904 19.3736 29.0522 18.3194 28.5916ZM25.226 23.9746C25.9159 20.6054 23.0953 17.6259 19.7762 18.2177C17.2908 18.6609 15.5294 21.0006 15.8324 23.4564C16.1059 25.6726 17.9752 27.4791 20.0665 27.6637C22.7127 27.8974 24.7665 26.0591 25.226 23.9746Z" fill="#130E1D"/>
<path id="Vector_14" d="M25.218 24.0066C24.7665 26.0594 22.7126 27.8977 20.0664 27.664C17.9751 27.4794 16.1058 25.6729 15.8324 23.4567C15.5294 21.0009 17.2907 18.6612 19.7761 18.218C23.0953 17.6262 25.9158 20.6057 25.218 24.0066Z" fill="#F0F0F0"/>
</g>
<defs>
<clipPath id="clip0_4216_1067">
<rect width="40" height="40" fill="white" transform="translate(0.5)"/>
</clipPath>
</defs>
</svg>
